<?xml version="1.0" encoding="UTF-8"?>
<svg xmlns="http://www.w3.org/2000/svg" viewBox="0 0 720 100" width="720" height="100" role="img" aria-labelledby="title desc">
  <title id="title">Extreme Programming technical practices</title>
  <desc id="desc">Engineering practices in tight feedback loops; often combined with Scrum or Kanban cadence</desc>
  <rect width="100%" height="100%" fill="#f6f3ed"/>
  <text x="360" y="16" text-anchor="middle" font-family="system-ui, Segoe UI, sans-serif" font-weight="700" font-size="12" fill="#2c5f4e">XP — technical excellence (core practices, linearized)</text>
  <g font-family="system-ui, sans-serif">
    <rect x="14" y="34" width="128" height="46" rx="4" fill="#2c5282"/>
    <text x="78" y="54" text-anchor="middle" fill="#fff" font-weight="700" font-size="10">TDD / test-first</text>
    <text x="78" y="70" text-anchor="middle" fill="#fff" font-size="8.5">Red-green-refactor</text>
    <rect x="154" y="34" width="128" height="46" rx="4" fill="#285e61"/>
    <text x="218" y="54" text-anchor="middle" fill="#fff" font-weight="700" font-size="10">Continuous integration</text>
    <text x="218" y="70" text-anchor="middle" fill="#fff" font-size="8.5">Main stays green</text>
    <rect x="294" y="34" width="128" height="46" rx="4" fill="#744210"/>
    <text x="358" y="54" text-anchor="middle" fill="#fff" font-weight="700" font-size="10">Pair / mob</text>
    <text x="358" y="70" text-anchor="middle" fill="#fff" font-size="8.5">Shared ownership</text>
    <rect x="434" y="34" width="128" height="46" rx="4" fill="#6b2c5c"/>
    <text x="498" y="54" text-anchor="middle" fill="#fff" font-weight="700" font-size="10">Refactoring</text>
    <text x="498" y="70" text-anchor="middle" fill="#fff" font-size="8.5">Simple design</text>
    <rect x="574" y="34" width="132" height="46" rx="4" fill="#553c9a"/>
    <text x="640" y="54" text-anchor="middle" fill="#fff" font-weight="700" font-size="10">Small releases</text>
    <text x="640" y="70" text-anchor="middle" fill="#fff" font-size="8.5">Frequent delivery</text>
  </g>
  <g stroke="#94a3b8" stroke-width="1.5" fill="none">
    <path d="M 142 57 L 154 57"/>
    <path d="M 282 57 L 294 57"/>
    <path d="M 422 57 L 434 57"/>
    <path d="M 562 57 L 574 57"/>
  </g>
  <polygon points="154,57 148,53 148,61" fill="#64748b"/>
  <polygon points="294,57 288,53 288,61" fill="#64748b"/>
  <polygon points="434,57 428,53 428,61" fill="#64748b"/>
  <polygon points="574,57 568,53 568,61" fill="#64748b"/>
  <text x="360" y="94" text-anchor="middle" font-family="system-ui, sans-serif" font-size="8.5" fill="#64748b">Combine with Scrum sprints or Kanban flow · quality gates in CI map directly here</text>
</svg>
